<svg version="1.1" id="Layer_1" xmlns="http://www.w3.org/2000/svg" xmlns:xlink="http://www.w3.org/1999/xlink" x="0px" y="0px"
	 width="100%" viewBox="0 0 72 68" enable-background="new 0 0 72 68" xml:space="preserve">
<path fill="#010101" opacity="1.000000" stroke="none" 
	d="
M1.000000,27.000008 
	C1.000000,18.000011 1.000000,9.500011 1.000000,1.000009 
	C24.999994,1.000006 48.999989,1.000006 72.999985,1.000003 
	C72.999992,23.666662 72.999992,46.333324 73.000000,68.999985 
	C49.000004,68.999992 25.000008,68.999992 1.000006,69.000000 
	C1.000000,55.166668 1.000000,41.333336 1.000000,27.000008 
M52.378632,62.984150 
	C60.440876,60.867611 66.618507,56.468586 69.686195,48.330051 
	C62.659954,40.809292 61.291065,36.165321 61.763493,25.047380 
	C61.965534,20.292564 61.504089,15.392788 60.523174,10.731647 
	C59.026291,3.618745 56.825619,2.910913 52.263363,8.431170 
	C46.979473,14.824591 41.848640,20.559431 32.484249,18.656879 
	C32.043354,18.567303 31.568399,18.645382 32.027836,18.645382 
	C28.027225,14.243863 24.595169,10.255516 20.924622,6.500283 
	C18.246185,3.760050 15.761090,4.784966 15.223639,8.171460 
	C14.246812,14.326485 13.983219,20.592636 13.351615,26.805258 
	C12.946293,30.792110 13.063670,34.995766 11.758876,38.681740 
	C10.438855,42.410728 7.655181,45.621601 5.411254,49.222118 
	C7.181604,51.700218 8.646292,55.386879 11.361705,57.270592 
	C23.682201,65.817467 37.304279,67.056587 52.378632,62.984150 
z"/>
<path fill="#F9F9F8" opacity="1.000000" stroke="none" 
	d="
M51.968761,63.010323 
	C37.304279,67.056587 23.682201,65.817467 11.361705,57.270592 
	C8.646292,55.386879 7.181604,51.700218 5.411254,49.222118 
	C7.655181,45.621601 10.438855,42.410728 11.758876,38.681740 
	C13.063670,34.995766 12.946293,30.792110 13.351615,26.805258 
	C13.983219,20.592636 14.246812,14.326485 15.223639,8.171460 
	C15.761090,4.784966 18.246185,3.760050 20.924622,6.500283 
	C24.595169,10.255516 28.027225,14.243863 32.027836,18.645382 
	C31.568399,18.645382 32.043354,18.567303 32.484249,18.656879 
	C41.848640,20.559431 46.979473,14.824591 52.263363,8.431170 
	C56.825619,2.910913 59.026291,3.618745 60.523174,10.731647 
	C61.504089,15.392788 61.965534,20.292564 61.763493,25.047380 
	C61.291065,36.165321 62.659954,40.809292 69.686195,48.330051 
	C66.618507,56.468586 60.440876,60.867611 51.968761,63.010323 
M46.001213,37.711109 
	C43.569851,42.026447 43.886059,45.149368 47.178711,45.705647 
	C48.901215,45.996658 51.312904,45.031700 52.645302,43.801884 
	C53.513268,43.000736 53.650188,39.701565 52.980675,39.266514 
	C51.110954,38.051582 48.651081,37.744873 46.001213,37.711109 
M27.883959,36.918812 
	C26.774347,36.903271 25.247971,36.421349 24.638737,36.965767 
	C23.210823,38.241760 20.926327,40.614815 21.318869,41.454865 
	C22.202293,43.345425 24.361742,45.473549 26.270021,45.768166 
	C27.618195,45.976315 30.048561,43.601067 30.765205,41.869755 
	C31.219658,40.771858 29.415659,38.739113 27.883959,36.918812 
M23.998718,16.609394 
	C22.651327,14.974224 21.303934,13.339054 19.956543,11.703885 
	C19.379055,11.900466 18.801567,12.097047 18.224079,12.293629 
	C18.001549,16.747339 17.779020,21.201048 17.524595,26.293114 
	C20.995321,23.693691 23.535309,21.791353 26.102816,19.868404 
	C25.391590,18.878576 24.819530,18.082428 23.998718,16.609394 
M50.948254,21.475054 
	C52.873489,22.893847 54.798725,24.312639 57.723923,26.468346 
	C57.244900,21.118212 56.849319,16.700054 56.453739,12.281898 
	C53.130264,14.490749 51.219917,16.739872 49.487148,19.118366 
	C49.276360,19.407715 50.021023,20.393129 50.948254,21.475054 
M39.176357,54.600929 
	C39.936035,53.326469 40.695713,52.052010 42.241150,49.459332 
	C38.660942,50.017006 36.532745,50.348507 34.404549,50.680008 
	C35.162857,52.236858 35.961754,53.775745 36.662010,55.358280 
	C37.001888,56.126389 37.157059,56.976234 37.504910,58.160309 
	C37.940758,56.836971 38.233608,55.947811 39.176357,54.600929 
z"/>
<path fill="#0B0A0A" opacity="1.000000" stroke="none" 
	d="
M46.212688,37.395382 
	C48.651081,37.744873 51.110954,38.051582 52.980675,39.266514 
	C53.650188,39.701565 53.513268,43.000736 52.645302,43.801884 
	C51.312904,45.031700 48.901215,45.996658 47.178711,45.705647 
	C43.886059,45.149368 43.569851,42.026447 46.212688,37.395382 
z"/>
<path fill="#090505" opacity="1.000000" stroke="none" 
	d="
M28.254234,37.022217 
	C29.415659,38.739113 31.219658,40.771858 30.765205,41.869755 
	C30.048561,43.601067 27.618195,45.976315 26.270021,45.768166 
	C24.361742,45.473549 22.202293,43.345425 21.318869,41.454865 
	C20.926327,40.614815 23.210823,38.241760 24.638737,36.965767 
	C25.247971,36.421349 26.774347,36.903271 28.254234,37.022217 
z"/>
<path fill="#030303" opacity="1.000000" stroke="none" 
	d="
M24.123095,16.947836 
	C24.819530,18.082428 25.391590,18.878576 26.102816,19.868404 
	C23.535309,21.791353 20.995321,23.693691 17.524595,26.293114 
	C17.779020,21.201048 18.001549,16.747339 18.224079,12.293629 
	C18.801567,12.097047 19.379055,11.900466 19.956543,11.703885 
	C21.303934,13.339054 22.651327,14.974224 24.123095,16.947836 
z"/>
<path fill="#020202" opacity="1.000000" stroke="none" 
	d="
M50.635567,21.265503 
	C50.021023,20.393129 49.276360,19.407715 49.487148,19.118366 
	C51.219917,16.739872 53.130264,14.490749 56.453739,12.281898 
	C56.849319,16.700054 57.244900,21.118212 57.723923,26.468346 
	C54.798725,24.312639 52.873489,22.893847 50.635567,21.265503 
z"/>
<path fill="#040404" opacity="1.000000" stroke="none" 
	d="
M38.851410,54.829788 
	C38.233608,55.947811 37.940758,56.836971 37.504910,58.160309 
	C37.157059,56.976234 37.001888,56.126389 36.662010,55.358280 
	C35.961754,53.775745 35.162857,52.236858 34.404549,50.680008 
	C36.532745,50.348507 38.660942,50.017006 42.241150,49.459332 
	C40.695713,52.052010 39.936035,53.326469 38.851410,54.829788 
z"/>
</svg>